<svg height="512" viewBox="0 0 512 512" width="512" xmlns="http://www.w3.org/2000/svg"><g id="Fill_out_line" data-name="Fill out line"><rect fill="#2b7cd4" height="32" rx="16" width="384" x="24" y="328"/><path d="m96 488-40-128h320l-40 128z" fill="#3ea7ff"/><path d="m384 320v8h-136v-32a32.00409 32.00409 0 0 1 32-32l1.57007-6.25977a33.97713 33.97713 0 0 1 66.59985 3.42969l1.55008 10.83008 2.28 16a31.99139 31.99139 0 0 1 32 32z" fill="#65dcff"/><path d="m264 72-56 16-16-24h-40v-8a32.004 32.004 0 0 1 32-32h16a97.69771 97.69771 0 0 1 52.61 33.76l.33.40991z" fill="#ffc7cc"/><path d="m216 72h32v256h-32z" fill="#d9501a"/><path d="m174.41665 65.58336.61282-.61281a24 24 0 0 1 33.94108 0 24 24 0 0 1 7.02945 16.97056v246.05889h-56v-128l7.434-118.94318a24 24 0 0 1 6.98265-15.47346z" fill="#e05e1d"/><path d="m142.41665 65.58336.61282-.61281a24 24 0 0 1 33.94108 0 24 24 0 0 1 7.02945 16.97056v246.05889h-56v-128l7.434-118.94318a24 24 0 0 1 6.98265-15.47346z" fill="#ff6f35"/><g fill="#ffc7cc"><path d="m152 72a15.97843 15.97843 0 0 1 -16 16h-16a16 16 0 1 1 0-32h16a15.99552 15.99552 0 0 1 16 16z"/><path d="m152 104a15.97843 15.97843 0 0 1 -16 16h-32a16 16 0 1 1 0-32h32a15.99552 15.99552 0 0 1 16 16z"/><path d="m152 136a15.97843 15.97843 0 0 1 -16 16h-24a16 16 0 1 1 0-32h24a15.99552 15.99552 0 0 1 16 16z"/><path d="m152 168a15.97843 15.97843 0 0 1 -16 16h-16a16 16 0 1 1 0-32h16a15.99552 15.99552 0 0 1 16 16z"/><path d="m496 72v112l-136-16-40 16h-88a16 16 0 1 1 0-32 16 16 0 1 1 0-32 16 16 0 1 1 0-32 16 16 0 1 1 0-32h88l40 16z"/><path d="m360 72-40-16h-72a31.97287 31.97287 0 0 1 32-32h16a97.69712 97.69712 0 0 1 52.61 33.76l1.9801 2.48z"/></g><path d="m128 256v72h-88a31.99139 31.99139 0 0 1 32-32 40.01408 40.01408 0 0 1 40-40z" fill="#65dcff"/><path d="m216 328h24l8 72 3.60394 3.60394a23.64673 23.64673 0 0 0 36.39606-3.60394l-27.42533-89.13232a21.0616 21.0616 0 0 0 -20.13024-14.86768 21.06159 21.06159 0 0 0 -20.43275 15.95341z" fill="#f2e368"/><path d="m262.08915 315.78974 25.91085 84.21026a22.6274 22.6274 0 0 1 32 0l-28.67841-93.20484a15.29246 15.29246 0 0 0 -14.61621-10.79516 15.29245 15.29245 0 0 0 -14.61623 19.78974z" fill="#eacf4d"/><path d="m408 384a24 24 0 1 0 24 24 24.02718 24.02718 0 0 0 -24-24zm0 32a8 8 0 1 1 8-8 8.00917 8.00917 0 0 1 -8 8z"/><path d="m456 344a24 24 0 1 0 24 24 24.02718 24.02718 0 0 0 -24-24zm0 32a8 8 0 1 1 8-8 8.00917 8.00917 0 0 1 -8 8z"/><path d="m360.93457 160.05469a7.99852 7.99852 0 0 0 -3.90576.51758l-38.56934 15.42773h-86.45947a8 8 0 0 1 0-16h8a8 8 0 0 0 0-16h-8a8 8 0 0 1 0-16h8a8 8 0 0 0 0-16h-8a8 8 0 0 1 0-16h8a8 8 0 0 0 0-16h-8a8 8 0 0 1 0-16h64v-16h-38.62378a24.038 24.038 0 0 1 22.62378-16h14.99316a90.24549 90.24549 0 0 1 47.36524 30.75488l11.39453 14.24219a7.99917 7.99917 0 0 0 6.24707 3.00293h136v-16h-132.15479l-8.99267-11.24121a106.319 106.319 0 0 0 -56.91211-36.51953 7.97509 7.97509 0 0 0 -1.94043-.23926h-16a40.03394 40.03394 0 0 0 -35.654 21.90283 105.50318 105.50318 0 0 0 -42.40552-21.66357 7.97509 7.97509 0 0 0 -1.94048-.23926h-16a40.05945 40.05945 0 0 0 -39.47607 33.56934 23.87131 23.87131 0 0 0 -8.52393-1.56934h-16a23.98508 23.98508 0 0 0 -22.30334 32.8457 23.98534 23.98534 0 0 0 -6.596 43.377 23.9535 23.9535 0 0 0 7.99994 32 23.9829 23.9829 0 0 0 20.8994 35.7773h.48444l-.46882 7.501c-.01025.166-.01562.333-.01562.499v48h-8a48.07587 48.07587 0 0 0 -47.44531 40.69434 40.10412 40.10412 0 0 0 -31.96643 32.48242 23.9979 23.9979 0 0 0 7.41174 46.82324h10.11871l38.24555 122.38574a8.00007 8.00007 0 0 0 7.63574 5.61426h240a8.00007 8.00007 0 0 0 7.63574-5.61426l38.24561-122.38574h10.11865a24 24 0 0 0 0-48 40.06355 40.06355 0 0 0 -32.97363-39.38184l-2.93946-20.57516a41.97891 41.97891 0 0 0 -82.28271-4.24512l-.17725.709a39.81144 39.81144 0 0 0 -17.62695 7.51265v-72.01953h64a8.00164 8.00164 0 0 0 2.97119-.57227l38.11281-15.24511 133.98145 15.76269 1.86914-15.89062zm-224.93457 40.19531.51642-8.26318a23.97859 23.97859 0 0 0 17.35284-39.98682 23.94368 23.94368 0 0 0 -.00006-32 23.94359 23.94359 0 0 0 0-32 23.96894 23.96894 0 0 0 5.35944-22.0415 16.00235 16.00235 0 0 1 16.77136 15.98291v238.05859h-40zm-24-56.25a8 8 0 0 1 0-16h24a8 8 0 0 1 0 16zm76.00256-77.55933a16.00927 16.00927 0 0 1 19.99744 15.50074v238.05859h-16v-238.05859a31.82041 31.82041 0 0 0 -3.99744-15.50074zm-4.00256-34.44067h14.99414a89.53082 89.53082 0 0 1 32.41724 16.01489 23.97829 23.97829 0 0 0 -18.61927 9.61182 32.003 32.003 0 0 0 -36.80328-3.39551 32.009 32.009 0 0 0 -15.21918-4.26684 24.04242 24.04242 0 0 1 23.23035-17.96436zm-64 32h16a8 8 0 0 1 0 16h-16a8 8 0 0 1 0-16zm-16 32h32a8 8 0 0 1 0 16h-32a8 8 0 0 1 0-16zm8 72a8.00917 8.00917 0 0 1 8-8h16a8 8 0 0 1 0 16h-16a8.00917 8.00917 0 0 1 -8-8zm-40 136h32v-16h-22.98737a32.05744 32.05744 0 0 1 30.98737-24h8v56h-70.62891a24.04118 24.04118 0 0 1 22.62891-16zm-32 48a8 8 0 0 1 0-16h176a18.78028 18.78028 0 0 1 18.58228 16zm230.83936-45.04a7.29295 7.29295 0 0 1 12.83642 2.1875l23.50293 76.38672a31.20016 31.20016 0 0 0 -3.17871-.16215 30.60162 30.60162 0 0 0 -11.45264 2.2041l-22.81152-74.13867h-.00024l-.00122-.00391a7.22641 7.22641 0 0 1 1.10498-6.47359zm-30.395-2.96a12.99538 12.99538 0 0 1 12.48388 9.2207l26.16114 85.02246a15.65488 15.65488 0 0 1 -21.82911-.29687l-1.61914-1.61914-5.03955-45.35742a34.78338 34.78338 0 0 0 -24.71094-29.54688l1.88233-7.5293a13.04192 13.04192 0 0 1 12.67137-9.89355zm89.67431 176h-228.23732l-35-112h169.51373l3.65375 32.88379a7.9963 7.9963 0 0 0 2.29492 4.77344l3.60352 3.60351a31.51688 31.51688 0 0 0 22.34273 9.27051c1.04639 0 2.09961-.05078 3.15332-.15527a31.51916 31.51916 0 0 0 22.596-13.06641 14.59782 14.59782 0 0 1 20.30346.34668 7.99975 7.99975 0 0 0 13.30323-8.00879l-9.12208-29.64746h46.59472zm69.88133-136a8.00917 8.00917 0 0 1 -8 8h-78.39917l-4.92283-16h83.322a8.00917 8.00917 0 0 1 8 8zm-120-72a8.00005 8.00005 0 0 0 7.76123-6.05957l1.56543-6.26172a25.979 25.979 0 0 1 50.92139 2.62695l2.52783 17.69434h-14.77588v16h24a24.02718 24.02718 0 0 1 24 24h-72.24512l-4.78711-15.55859a23.29816 23.29816 0 0 0 -39.21423-9.12989 28.79318 28.79318 0 0 0 -3.51379-2.66894 24.03312 24.03312 0 0 1 23.76025-20.64258zm-40 16.01855a28.98374 28.98374 0 0 0 -16 5.08887v-102.48364a23.88212 23.88212 0 0 0 8 1.37622h8z"/></g></svg>