<svg id="Filled" height="512" viewBox="0 0 512 512" width="512" xmlns="http://www.w3.org/2000/svg"><path d="m80 40h352v432h-352z" fill="#e9eef2"/><path d="m80 40h352v96h-352z" fill="#d0d2d4"/><g fill="#e9eef2"><circle cx="128" cy="88" r="16"/><circle cx="192" cy="88" r="16"/><circle cx="256" cy="88" r="16"/><path d="m304 72h96v32h-96z"/></g><circle cx="256" cy="304" fill="#d0d2d4" r="120"/><circle cx="256" cy="304" fill="#9aa3a8" r="88"/><path d="m343.43 313.99a88 88 0 0 1 -175.43-9.99 86.74 86.74 0 0 1 .57-9.99c17.03.43 17.22 19.99 34.63 19.99 17.6 0 17.6-20 35.2-20s17.6 20 35.19 20c17.61 0 17.61-20 35.21-20 17.41 0 17.6 19.56 34.63 19.99z" fill="#3397e8"/><path d="m160 472h-128l-8-144h144z" fill="#ad6643"/><path d="m168.57 294.01c-.19-.01-.38-.01-.57-.01" fill="#6ed2f0"/><path d="m344 314c-.19 0-.38 0-.57-.01" fill="#6ed2f0"/><path d="m152 296h-112a16 16 0 0 0 -16 16 16 16 0 0 0 16 16h112a16 16 0 0 0 16-16 16 16 0 0 0 -16-16z" fill="#fd84b3"/><path d="m152 264h-112a16 16 0 0 0 -16 16 16 16 0 0 0 16 16h112a16 16 0 0 0 16-16 16 16 0 0 0 -16-16z" fill="#fda2c6"/><path d="m472 440h-112a16 16 0 0 0 -16 16 16 16 0 0 0 16 16h112a16 16 0 0 0 16-16 16 16 0 0 0 -16-16z" fill="#ff6aa0"/><path d="m472 408h-112a16 16 0 0 0 -16 16 16 16 0 0 0 16 16h112a16 16 0 0 0 16-16 16 16 0 0 0 -16-16z" fill="#fd84b3"/><path d="m472 376h-112a16 16 0 0 0 -16 16 16 16 0 0 0 16 16h112a16 16 0 0 0 16-16 16 16 0 0 0 -16-16z" fill="#fda2c6"/><path d="m128 112a24 24 0 1 0 -24-24 24.027 24.027 0 0 0 24 24zm0-32a8 8 0 1 1 -8 8 8.009 8.009 0 0 1 8-8z"/><path d="m192 112a24 24 0 1 0 -24-24 24.027 24.027 0 0 0 24 24zm0-32a8 8 0 1 1 -8 8 8.009 8.009 0 0 1 8-8z"/><path d="m256 112a24 24 0 1 0 -24-24 24.027 24.027 0 0 0 24 24zm0-32a8 8 0 1 1 -8 8 8.009 8.009 0 0 1 8-8z"/><path d="m304 112h96a8 8 0 0 0 8-8v-32a8 8 0 0 0 -8-8h-96a8 8 0 0 0 -8 8v32a8 8 0 0 0 8 8zm8-32h80v16h-80z"/><path d="m489.869 408a23.984 23.984 0 0 0 -17.869-40h-32v-328a8 8 0 0 0 -8-8h-352a8 8 0 0 0 -8 8v216h-32a23.984 23.984 0 0 0 -17.869 40 23.954 23.954 0 0 0 -3.782 26.349c-.052.052-.11.1-.16.153a8 8 0 0 0 -2.177 5.941l8 144a8 8 0 0 0 7.988 7.557h440a23.984 23.984 0 0 0 17.869-40 23.943 23.943 0 0 0 0-32zm-457.869-96a8.009 8.009 0 0 1 8-8h112a8 8 0 0 1 0 16h-112a8.009 8.009 0 0 1 -8-8zm147.593-2.715c4.722 5.365 11.188 12.715 23.607 12.715s18.884-7.349 23.606-12.715c4.329-4.92 6.631-7.285 11.593-7.285s7.265 2.365 11.594 7.285c4.721 5.366 11.188 12.715 23.6 12.715s18.885-7.349 23.607-12.715c4.33-4.92 6.632-7.285 11.6-7.285s7.266 2.365 11.6 7.285c3.307 3.758 7.479 8.479 13.942 10.977a79.99 79.99 0 0 1 -158.3-14.8c1.08 1.038 2.219 2.309 3.551 3.823zm152.807-10.57c-4.718-5.366-11.186-12.715-23.6-12.715s-18.884 7.349-23.607 12.715c-4.33 4.92-6.631 7.285-11.6 7.285s-7.263-2.365-11.592-7.285c-4.721-5.365-11.188-12.715-23.601-12.715s-18.883 7.349-23.6 12.715c-4.33 4.92-6.631 7.285-11.594 7.285s-7.263-2.365-11.593-7.285c-3.306-3.757-7.477-8.479-13.939-10.977a79.99 79.99 0 0 1 158.3 14.8c-1.097-1.038-2.237-2.309-3.574-3.823zm-76.4 101.285a96 96 0 1 0 -86.884-136.8 23.943 23.943 0 0 0 -14.4-7.039 112.015 112.015 0 1 1 18.438 123.209l1.369-24.65a96.018 96.018 0 0 0 81.477 45.28zm-84.018.55a127.841 127.841 0 0 0 166.223 1.481 24.073 24.073 0 0 0 3.926 5.969 23.943 23.943 0 0 0 0 32 23.943 23.943 0 0 0 -4.755 24h-168.919zm180.018 23.45a8.009 8.009 0 0 1 8-8h112a8 8 0 0 1 0 16h-112a8.009 8.009 0 0 1 -8-8zm128-32a8.009 8.009 0 0 1 -8 8h-112a8 8 0 0 1 0-16h112a8.009 8.009 0 0 1 8 8zm-56-344v80h-336v-80zm-336 96h336v224h-57.183a127.995 127.995 0 1 0 -229.5-112h-49.317zm-48 128h112a8 8 0 0 1 0 16h-112a8 8 0 0 1 0-16zm-.432 192-7.111-128h127.086l-7.111 128zm432.432 0h-112a8 8 0 0 1 0-16h112a8 8 0 0 1 0 16z"/></svg>